<?xml version="1.0" encoding="UTF-8" standalone="no"?>
<!-- Generator: Adobe Illustrator 23.0.2, SVG Export Plug-In . SVG Version: 6.00 Build 0)  -->

<svg
   xmlns:dc="http://purl.org/dc/elements/1.1/"
   xmlns:cc="http://creativecommons.org/ns#"
   xmlns:rdf="http://www.w3.org/1999/02/22-rdf-syntax-ns#"
   xmlns:svg="http://www.w3.org/2000/svg"
   xmlns="http://www.w3.org/2000/svg"
   xmlns:sodipodi="http://sodipodi.sourceforge.net/DTD/sodipodi-0.dtd"
   xmlns:inkscape="http://www.inkscape.org/namespaces/inkscape"
   version="1.1"
   id="Layer"
   x="0px"
   y="0px"
   viewBox="0 0 412 412"
   enable-background="new 0 0 512 512"
   xml:space="preserve"
   sodipodi:docname="ibis_orange_round.svg"
   inkscape:version="0.92.4 (5da689c313, 2019-01-14)"
   width="412"
   height="412"
   inkscape:export-filename="C:\Users\digzo\OneDrive\Pictures\Creations\Victoria\ibis_orange_ico.png"
   inkscape:export-xdpi="14.912621"
   inkscape:export-ydpi="14.912621"><metadata
   id="metadata3735"><rdf:RDF><cc:Work
       rdf:about=""><dc:format>image/svg+xml</dc:format><dc:type
         rdf:resource="http://purl.org/dc/dcmitype/StillImage" /><dc:title></dc:title></cc:Work></rdf:RDF></metadata><defs
   id="defs3733" /><sodipodi:namedview
   pagecolor="#ffffff"
   bordercolor="#666666"
   borderopacity="1"
   objecttolerance="10"
   gridtolerance="10"
   guidetolerance="10"
   inkscape:pageopacity="0"
   inkscape:pageshadow="2"
   inkscape:window-width="1920"
   inkscape:window-height="1017"
   id="namedview3731"
   showgrid="false"
   inkscape:zoom="1.65625"
   inkscape:cx="91.382065"
   inkscape:cy="200.002"
   inkscape:window-x="1912"
   inkscape:window-y="-8"
   inkscape:window-maximized="1"
   inkscape:current-layer="Icon_1_"
   fit-margin-top="-0.4"
   fit-margin-left="0"
   fit-margin-right="0"
   fit-margin-bottom="0"
   scale-x="1"
   viewbox-width="412"
   inkscape:showpageshadow="false"
   borderlayer="false"
   inkscape:pagecheckerboard="true"
   showborder="true" />

<g
   id="Icon_1_"
   transform="translate(-50,15.71081)">
	<path
   id="Body"
   d="m 273.60845,-15.710812 c 53.3081,29.977204 230.05646,101.758039 106.36521,251.140412 34.04507,-14.19935 69.29914,-46.44228 76.68916,-91.79354 36.26207,214.55251 -124.13125,213.76692 -124.13125,213.76692 0,0 7.55401,3.9485 57.78412,5.13055 -45.39509,32.33545 -138.74028,58.12774 -226.69946,-4.73409 -91.990187,-67.19358 29.46406,-106.88713 86.32918,-124.92338 56.8641,-18.04212 190.86538,-85.89207 23.66304,-248.586872 z"
   style="fill:#2f3131;fill-opacity:1;stroke-width:1.21177304"
   inkscape:connector-curvature="0" />
	<path
   id="Head"
   d="m 335.05157,144.02546 c -10.77801,51.84009 -134.41526,87.21656 -142.69328,90.72015 -8.27802,3.50358 -161.697329,64.87498 -5.90802,144.54842 C 86.261073,358.18884 51.343002,252.09465 113.65812,201.6143 175.97426,151.1222 228.35136,189.782 221.09935,138.69961 208.87932,139.09607 198.4043,123.31821 197.4623,116.4109 95.665092,123.71614 64.90903,157.82834 50,176.75737 55.375011,141.26195 93.513088,95.217609 197.8643,81.508709 224.45635,20.968411 309.16452,37.46138 335.05157,144.02546 Z"
   style="fill:#e0a72d;fill-opacity:1;stroke-width:1.21177304"
   inkscape:connector-curvature="0" />
</g>
</svg>